<?xml version="1.0"?>
<svg xmlns="http://www.w3.org/2000/svg" xmlns:xlink="http://www.w3.org/1999/xlink" version="1.1" id="Capa_1" x="0px" y="0px" viewBox="0 0 512 512" style="enable-background:new 0 0 512 512;" xml:space="preserve" width="512px" height="512px" class=""><g><g>
	<g>
		<path d="M501.333,170.667H480c-5.896,0-10.667,4.771-10.667,10.667v32c0,11.76-9.563,21.333-21.333,21.333v-53.333    c0-17.646-14.354-32-32-32c-17.646,0-32,14.354-32,32v53.333h-21.491c-0.842-46.643-38.525-84.328-85.176-85.176v-0.158    c11.771,0,21.333-9.573,21.333-21.333V64c0-11.76-9.563-21.333-21.333-21.333V32c0-5.896-4.771-10.667-10.667-10.667    C260.771,21.333,256,26.104,256,32v10.667c-11.771,0-21.333,9.573-21.333,21.333v64c0,11.76,9.563,21.333,21.333,21.333H96    c-17.646,0-32-14.354-32-32c0-5.896-4.771-10.667-10.667-10.667H10.667C4.771,106.667,0,111.437,0,117.333v192    C0,315.229,4.771,320,10.667,320c0,5.896,4.771,10.667,10.667,10.667v64c0,5.896,4.771,10.667,10.667,10.667    s10.667-4.771,10.667-10.667v-64c5.896,0,10.667-4.771,10.667-10.667v-6.022c6.87-4.776,12.018-11.897,13.5-20.717l4.708-28.333    C72.417,259.75,76.833,256,82.063,256h105.542c14.188,0,25.729,11.542,25.729,25.729c0,3.583-0.313,7.167-0.938,10.958    l-18.992,133.979H10.667C4.771,426.667,0,431.437,0,437.333V480c0,5.896,4.771,10.667,10.667,10.667h448    c5.896,0,10.667-4.771,10.667-10.667v-42.667c0-5.896-4.771-10.667-10.667-10.667H341.333V326.594    c0-9.635,2.271-19.292,6.583-27.927c6.684-13.367,11.025-27.866,13.16-42.667H384v53.333c0,17.646,14.354,32,32,32    c17.646,0,32-14.354,32-32V256c23.521,0,42.667-19.135,42.667-42.667V192h10.667c5.896,0,10.667-4.771,10.667-10.667    C512,175.437,507.229,170.667,501.333,170.667z M288,252.723v120.611c0,5.896-4.771,10.667-10.667,10.667    c-5.896,0-10.667-4.771-10.667-10.667V252.723C260.408,248.999,256,242.461,256,234.667c0-11.76,9.563-21.333,21.333-21.333    c11.771,0,21.333,9.573,21.333,21.333C298.667,242.461,294.259,248.999,288,252.723z" data-original="#000000" class="active-path" data-old_color="#000000" fill="#FFFFFF"/>
	</g>
</g></g> </svg>
