<?xml version="1.0" encoding="UTF-8"?>
<svg xmlns="http://www.w3.org/2000/svg" xmlns:xlink="http://www.w3.org/1999/xlink" width="20px" height="20px" viewBox="0 0 20 20" version="1.1">
<g id="surface1">
<rect x="0" y="0" width="20" height="20" style="fill:rgb(78.431373%,19.215686%,24.313725%);fill-opacity:1;stroke:none;"/>
<path style=" stroke:none;fill-rule:nonzero;fill:rgb(29.019608%,65.098039%,34.117647%);fill-opacity:1;" d="M 0 13.332031 L 20 13.332031 L 20 20 L 0 20 Z M 0 13.332031 "/>
<path style=" stroke:none;fill-rule:nonzero;fill:rgb(100%,100%,100%);fill-opacity:1;" d="M 0 0 L 2.222656 0 L 2.222656 20 L 0 20 Z M 0 0 "/>
<path style=" stroke:none;fill-rule:evenodd;fill:rgb(78.431373%,19.215686%,24.313725%);fill-opacity:1;" d="M 0.386719 0 L 0.675781 0 L 0.675781 0.328125 L 0.773438 0.328125 L 0.773438 0.65625 L 0.871094 0.65625 L 0.871094 0.984375 L 0.964844 0.984375 L 0.964844 1.3125 L 1.0625 1.3125 L 1.0625 1.640625 L 0.964844 1.640625 L 0.964844 1.96875 L 0.871094 1.96875 L 0.871094 2.296875 L 0.773438 2.296875 L 0.773438 2.621094 L 0.675781 2.621094 L 0.675781 2.949219 L 0.578125 2.949219 L 0.578125 3.277344 L 0.484375 3.277344 L 0.484375 2.949219 L 0.386719 2.949219 L 0.386719 2.621094 L 0.289062 2.621094 L 0.289062 2.296875 L 0.191406 2.296875 L 0.191406 1.96875 L 0.0976562 1.96875 L 0.0976562 1.640625 L 0 1.640625 L 0 1.3125 L 0.0976562 1.3125 L 0.0976562 0.984375 L 0.191406 0.984375 L 0.191406 0.65625 L 0.289062 0.65625 L 0.289062 0.328125 L 0.386719 0.328125 Z M 0.484375 0.65625 L 0.578125 0.65625 L 0.578125 0.984375 L 0.675781 0.984375 L 0.675781 1.3125 L 0.773438 1.3125 L 0.773438 1.640625 L 0.675781 1.640625 L 0.675781 1.96875 L 0.578125 1.96875 L 0.578125 2.296875 L 0.484375 2.296875 L 0.484375 1.96875 L 0.386719 1.96875 L 0.386719 1.640625 L 0.289062 1.640625 L 0.289062 1.3125 L 0.386719 1.3125 L 0.386719 0.984375 L 0.484375 0.984375 Z M 0.484375 1.3125 L 0.578125 1.3125 L 0.578125 1.640625 L 0.484375 1.640625 Z M 0 0.328125 L 0.0976562 0.328125 L 0.0976562 0.65625 L 0 0.65625 Z M 0 2.296875 L 0.0976562 2.296875 L 0.0976562 2.621094 L 0 2.621094 Z M 1.0625 0 L 1.121094 0 L 1.121094 0.65625 L 1.0625 0.65625 Z M 1.0625 2.296875 L 1.121094 2.296875 L 1.121094 2.949219 L 1.0625 2.949219 Z M 0.191406 2.949219 L 0.289062 2.949219 L 0.289062 3.277344 L 0.386719 3.277344 L 0.386719 3.605469 L 0.484375 3.605469 L 0.484375 3.933594 L 0.386719 3.933594 L 0.386719 4.261719 L 0.289062 4.261719 L 0.289062 4.589844 L 0.191406 4.589844 L 0.191406 4.261719 L 0.0976562 4.261719 L 0.0976562 3.933594 L 0 3.933594 L 0 3.605469 L 0.0976562 3.605469 L 0.0976562 3.277344 L 0.191406 3.277344 Z M 0.191406 3.605469 L 0.289062 3.605469 L 0.289062 3.933594 L 0.191406 3.933594 Z M 0.773438 2.949219 L 0.871094 2.949219 L 0.871094 3.277344 L 0.964844 3.277344 L 0.964844 3.605469 L 1.0625 3.605469 L 1.0625 3.933594 L 0.964844 3.933594 L 0.964844 4.261719 L 0.871094 4.261719 L 0.871094 4.589844 L 0.773438 4.589844 L 0.773438 4.261719 L 0.675781 4.261719 L 0.675781 3.933594 L 0.578125 3.933594 L 0.578125 3.605469 L 0.675781 3.605469 L 0.675781 3.277344 L 0.773438 3.277344 Z M 0.773438 3.605469 L 0.871094 3.605469 L 0.871094 3.933594 L 0.773438 3.933594 Z M 0 4.917969 L 0.0976562 4.917969 L 0.0976562 5.246094 L 0 5.246094 Z M 1.0625 4.589844 L 1.121094 4.589844 L 1.121094 5.246094 L 1.0625 5.246094 Z M 1.0625 4.589844 "/>
<path style=" stroke:none;fill-rule:evenodd;fill:rgb(78.431373%,19.215686%,24.313725%);fill-opacity:1;" d="M 0 5.902344 L 0.0976562 5.902344 L 0.0976562 5.574219 L 0.191406 5.574219 L 0.191406 5.246094 L 0.289062 5.246094 L 0.289062 4.917969 L 0.386719 4.917969 L 0.386719 4.589844 L 0.484375 4.589844 L 0.484375 4.261719 L 0.578125 4.261719 L 0.578125 4.589844 L 0.675781 4.589844 L 0.675781 4.917969 L 0.773438 4.917969 L 0.773438 5.246094 L 0.871094 5.246094 L 0.871094 5.574219 L 0.964844 5.574219 L 0.964844 5.902344 L 1.0625 5.902344 L 1.0625 6.230469 L 1.121094 6.230469 L 1.121094 7.539062 L 1.0625 7.539062 L 1.0625 7.867188 L 0.964844 7.867188 L 0.964844 8.195312 L 0.871094 8.195312 L 0.871094 8.523438 L 0.773438 8.523438 L 0.773438 8.851562 L 0.675781 8.851562 L 0.675781 9.179688 L 0.578125 9.179688 L 0.578125 10.03125 L 0.386719 10.03125 L 0.386719 9.835938 L 0.289062 9.835938 L 0.289062 9.507812 L 0.191406 9.507812 L 0.191406 9.179688 L 0.0976562 9.179688 L 0.0976562 8.851562 L 0 8.851562 L 0 7.867188 L 0.0976562 7.867188 L 0.0976562 8.195312 L 0.191406 8.195312 L 0.191406 8.523438 L 0.289062 8.523438 L 0.289062 8.851562 L 0.386719 8.851562 L 0.386719 8.523438 L 0.484375 8.523438 L 0.484375 8.195312 L 0.578125 8.195312 L 0.578125 7.867188 L 0.675781 7.867188 L 0.675781 7.539062 L 0.773438 7.539062 L 0.773438 7.214844 L 0.871094 7.214844 L 0.871094 6.886719 L 0.773438 6.886719 L 0.773438 6.558594 L 0.675781 6.558594 L 0.675781 6.230469 L 0.386719 6.230469 L 0.386719 6.558594 L 0.578125 6.558594 L 0.578125 6.886719 L 0.484375 6.886719 L 0.484375 7.214844 L 0.386719 7.214844 L 0.386719 7.539062 L 0.289062 7.539062 L 0.289062 7.214844 L 0.191406 7.214844 L 0.191406 6.886719 L 0.0976562 6.886719 L 0.0976562 6.558594 L 0 6.558594 Z M 0 7.214844 L 0.0976562 7.214844 L 0.0976562 7.539062 L 0 7.539062 Z M 1.0625 8.195312 L 1.121094 8.195312 L 1.121094 8.523438 L 1.0625 8.523438 Z M 0.871094 8.851562 L 0.964844 8.851562 L 0.964844 9.179688 L 1.0625 9.179688 L 1.0625 9.507812 L 1.121094 9.507812 L 1.121094 10.03125 L 1.0625 10.03125 L 1.0625 9.835938 L 0.964844 9.835938 L 0.964844 9.507812 L 0.871094 9.507812 Z M 0.675781 9.835938 L 0.773438 9.835938 L 0.773438 10.03125 L 0.675781 10.03125 Z M 0.675781 9.835938 "/>
<path style=" stroke:none;fill-rule:evenodd;fill:rgb(78.431373%,19.215686%,24.313725%);fill-opacity:1;" d="M 1.835938 0 L 1.546875 0 L 1.546875 0.328125 L 1.449219 0.328125 L 1.449219 0.65625 L 1.351562 0.65625 L 1.351562 0.984375 L 1.257812 0.984375 L 1.257812 1.3125 L 1.160156 1.3125 L 1.160156 1.640625 L 1.257812 1.640625 L 1.257812 1.96875 L 1.351562 1.96875 L 1.351562 2.296875 L 1.449219 2.296875 L 1.449219 2.621094 L 1.546875 2.621094 L 1.546875 2.949219 L 1.640625 2.949219 L 1.640625 3.277344 L 1.738281 3.277344 L 1.738281 2.949219 L 1.835938 2.949219 L 1.835938 2.621094 L 1.933594 2.621094 L 1.933594 2.296875 L 2.027344 2.296875 L 2.027344 1.96875 L 2.125 1.96875 L 2.125 1.640625 L 2.222656 1.640625 L 2.222656 1.3125 L 2.125 1.3125 L 2.125 0.984375 L 2.027344 0.984375 L 2.027344 0.65625 L 1.933594 0.65625 L 1.933594 0.328125 L 1.835938 0.328125 Z M 1.738281 0.65625 L 1.640625 0.65625 L 1.640625 0.984375 L 1.546875 0.984375 L 1.546875 1.3125 L 1.449219 1.3125 L 1.449219 1.640625 L 1.546875 1.640625 L 1.546875 1.96875 L 1.640625 1.96875 L 1.640625 2.296875 L 1.738281 2.296875 L 1.738281 1.96875 L 1.835938 1.96875 L 1.835938 1.640625 L 1.933594 1.640625 L 1.933594 1.3125 L 1.835938 1.3125 L 1.835938 0.984375 L 1.738281 0.984375 Z M 1.738281 1.3125 L 1.640625 1.3125 L 1.640625 1.640625 L 1.738281 1.640625 Z M 2.222656 0.328125 L 2.125 0.328125 L 2.125 0.65625 L 2.222656 0.65625 Z M 2.222656 2.296875 L 2.125 2.296875 L 2.125 2.621094 L 2.222656 2.621094 Z M 1.160156 0 L 1.101562 0 L 1.101562 0.65625 L 1.160156 0.65625 Z M 1.160156 2.296875 L 1.101562 2.296875 L 1.101562 2.949219 L 1.160156 2.949219 Z M 2.027344 2.949219 L 1.933594 2.949219 L 1.933594 3.277344 L 1.835938 3.277344 L 1.835938 3.605469 L 1.738281 3.605469 L 1.738281 3.933594 L 1.835938 3.933594 L 1.835938 4.261719 L 1.933594 4.261719 L 1.933594 4.589844 L 2.027344 4.589844 L 2.027344 4.261719 L 2.125 4.261719 L 2.125 3.933594 L 2.222656 3.933594 L 2.222656 3.605469 L 2.125 3.605469 L 2.125 3.277344 L 2.027344 3.277344 Z M 2.027344 3.605469 L 1.933594 3.605469 L 1.933594 3.933594 L 2.027344 3.933594 Z M 1.449219 2.949219 L 1.351562 2.949219 L 1.351562 3.277344 L 1.257812 3.277344 L 1.257812 3.605469 L 1.160156 3.605469 L 1.160156 3.933594 L 1.257812 3.933594 L 1.257812 4.261719 L 1.351562 4.261719 L 1.351562 4.589844 L 1.449219 4.589844 L 1.449219 4.261719 L 1.546875 4.261719 L 1.546875 3.933594 L 1.640625 3.933594 L 1.640625 3.605469 L 1.546875 3.605469 L 1.546875 3.277344 L 1.449219 3.277344 Z M 1.449219 3.605469 L 1.351562 3.605469 L 1.351562 3.933594 L 1.449219 3.933594 Z M 2.222656 4.917969 L 2.125 4.917969 L 2.125 5.246094 L 2.222656 5.246094 Z M 1.160156 4.589844 L 1.101562 4.589844 L 1.101562 5.246094 L 1.160156 5.246094 Z M 1.160156 4.589844 "/>
<path style=" stroke:none;fill-rule:evenodd;fill:rgb(78.431373%,19.215686%,24.313725%);fill-opacity:1;" d="M 2.222656 5.902344 L 2.125 5.902344 L 2.125 5.574219 L 2.027344 5.574219 L 2.027344 5.246094 L 1.933594 5.246094 L 1.933594 4.917969 L 1.835938 4.917969 L 1.835938 4.589844 L 1.738281 4.589844 L 1.738281 4.261719 L 1.640625 4.261719 L 1.640625 4.589844 L 1.546875 4.589844 L 1.546875 4.917969 L 1.449219 4.917969 L 1.449219 5.246094 L 1.351562 5.246094 L 1.351562 5.574219 L 1.257812 5.574219 L 1.257812 5.902344 L 1.160156 5.902344 L 1.160156 6.230469 L 1.101562 6.230469 L 1.101562 7.539062 L 1.160156 7.539062 L 1.160156 7.867188 L 1.257812 7.867188 L 1.257812 8.195312 L 1.351562 8.195312 L 1.351562 8.523438 L 1.449219 8.523438 L 1.449219 8.851562 L 1.546875 8.851562 L 1.546875 9.179688 L 1.640625 9.179688 L 1.640625 10.03125 L 1.835938 10.03125 L 1.835938 9.835938 L 1.933594 9.835938 L 1.933594 9.507812 L 2.027344 9.507812 L 2.027344 9.179688 L 2.125 9.179688 L 2.125 8.851562 L 2.222656 8.851562 L 2.222656 7.867188 L 2.125 7.867188 L 2.125 8.195312 L 2.027344 8.195312 L 2.027344 8.523438 L 1.933594 8.523438 L 1.933594 8.851562 L 1.835938 8.851562 L 1.835938 8.523438 L 1.738281 8.523438 L 1.738281 8.195312 L 1.640625 8.195312 L 1.640625 7.867188 L 1.546875 7.867188 L 1.546875 7.539062 L 1.449219 7.539062 L 1.449219 7.214844 L 1.351562 7.214844 L 1.351562 6.886719 L 1.449219 6.886719 L 1.449219 6.558594 L 1.546875 6.558594 L 1.546875 6.230469 L 1.835938 6.230469 L 1.835938 6.558594 L 1.640625 6.558594 L 1.640625 6.886719 L 1.738281 6.886719 L 1.738281 7.214844 L 1.835938 7.214844 L 1.835938 7.539062 L 1.933594 7.539062 L 1.933594 7.214844 L 2.027344 7.214844 L 2.027344 6.886719 L 2.125 6.886719 L 2.125 6.558594 L 2.222656 6.558594 Z M 2.222656 7.214844 L 2.125 7.214844 L 2.125 7.539062 L 2.222656 7.539062 Z M 1.160156 8.195312 L 1.101562 8.195312 L 1.101562 8.523438 L 1.160156 8.523438 Z M 1.351562 8.851562 L 1.257812 8.851562 L 1.257812 9.179688 L 1.160156 9.179688 L 1.160156 9.507812 L 1.101562 9.507812 L 1.101562 10.03125 L 1.160156 10.03125 L 1.160156 9.835938 L 1.257812 9.835938 L 1.257812 9.507812 L 1.351562 9.507812 Z M 1.546875 9.835938 L 1.449219 9.835938 L 1.449219 10.03125 L 1.546875 10.03125 Z M 1.546875 9.835938 "/>
<path style=" stroke:none;fill-rule:evenodd;fill:rgb(78.431373%,19.215686%,24.313725%);fill-opacity:1;" d="M 0.386719 20 L 0.675781 20 L 0.675781 19.671875 L 0.773438 19.671875 L 0.773438 19.34375 L 0.871094 19.34375 L 0.871094 19.015625 L 0.964844 19.015625 L 0.964844 18.6875 L 1.0625 18.6875 L 1.0625 18.359375 L 0.964844 18.359375 L 0.964844 18.03125 L 0.871094 18.03125 L 0.871094 17.703125 L 0.773438 17.703125 L 0.773438 17.378906 L 0.675781 17.378906 L 0.675781 17.050781 L 0.578125 17.050781 L 0.578125 16.722656 L 0.484375 16.722656 L 0.484375 17.050781 L 0.386719 17.050781 L 0.386719 17.378906 L 0.289062 17.378906 L 0.289062 17.703125 L 0.191406 17.703125 L 0.191406 18.03125 L 0.0976562 18.03125 L 0.0976562 18.359375 L 0 18.359375 L 0 18.6875 L 0.0976562 18.6875 L 0.0976562 19.015625 L 0.191406 19.015625 L 0.191406 19.34375 L 0.289062 19.34375 L 0.289062 19.671875 L 0.386719 19.671875 Z M 0.484375 19.34375 L 0.578125 19.34375 L 0.578125 19.015625 L 0.675781 19.015625 L 0.675781 18.6875 L 0.773438 18.6875 L 0.773438 18.359375 L 0.675781 18.359375 L 0.675781 18.03125 L 0.578125 18.03125 L 0.578125 17.703125 L 0.484375 17.703125 L 0.484375 18.03125 L 0.386719 18.03125 L 0.386719 18.359375 L 0.289062 18.359375 L 0.289062 18.6875 L 0.386719 18.6875 L 0.386719 19.015625 L 0.484375 19.015625 Z M 0.484375 18.6875 L 0.578125 18.6875 L 0.578125 18.359375 L 0.484375 18.359375 Z M 0 19.671875 L 0.0976562 19.671875 L 0.0976562 19.34375 L 0 19.34375 Z M 0 17.703125 L 0.0976562 17.703125 L 0.0976562 17.378906 L 0 17.378906 Z M 1.0625 20 L 1.121094 20 L 1.121094 19.34375 L 1.0625 19.34375 Z M 1.0625 17.703125 L 1.121094 17.703125 L 1.121094 17.050781 L 1.0625 17.050781 Z M 0.191406 17.050781 L 0.289062 17.050781 L 0.289062 16.722656 L 0.386719 16.722656 L 0.386719 16.394531 L 0.484375 16.394531 L 0.484375 16.066406 L 0.386719 16.066406 L 0.386719 15.738281 L 0.289062 15.738281 L 0.289062 15.410156 L 0.191406 15.410156 L 0.191406 15.738281 L 0.0976562 15.738281 L 0.0976562 16.066406 L 0 16.066406 L 0 16.394531 L 0.0976562 16.394531 L 0.0976562 16.722656 L 0.191406 16.722656 Z M 0.191406 16.394531 L 0.289062 16.394531 L 0.289062 16.066406 L 0.191406 16.066406 Z M 0.773438 17.050781 L 0.871094 17.050781 L 0.871094 16.722656 L 0.964844 16.722656 L 0.964844 16.394531 L 1.0625 16.394531 L 1.0625 16.066406 L 0.964844 16.066406 L 0.964844 15.738281 L 0.871094 15.738281 L 0.871094 15.410156 L 0.773438 15.410156 L 0.773438 15.738281 L 0.675781 15.738281 L 0.675781 16.066406 L 0.578125 16.066406 L 0.578125 16.394531 L 0.675781 16.394531 L 0.675781 16.722656 L 0.773438 16.722656 Z M 0.773438 16.394531 L 0.871094 16.394531 L 0.871094 16.066406 L 0.773438 16.066406 Z M 0 15.082031 L 0.0976562 15.082031 L 0.0976562 14.753906 L 0 14.753906 Z M 1.0625 15.410156 L 1.121094 15.410156 L 1.121094 14.753906 L 1.0625 14.753906 Z M 1.0625 15.410156 "/>
<path style=" stroke:none;fill-rule:evenodd;fill:rgb(78.431373%,19.215686%,24.313725%);fill-opacity:1;" d="M 0 14.097656 L 0.0976562 14.097656 L 0.0976562 14.425781 L 0.191406 14.425781 L 0.191406 14.753906 L 0.289062 14.753906 L 0.289062 15.082031 L 0.386719 15.082031 L 0.386719 15.410156 L 0.484375 15.410156 L 0.484375 15.738281 L 0.578125 15.738281 L 0.578125 15.410156 L 0.675781 15.410156 L 0.675781 15.082031 L 0.773438 15.082031 L 0.773438 14.753906 L 0.871094 14.753906 L 0.871094 14.425781 L 0.964844 14.425781 L 0.964844 14.097656 L 1.0625 14.097656 L 1.0625 13.769531 L 1.121094 13.769531 L 1.121094 12.460938 L 1.0625 12.460938 L 1.0625 12.132812 L 0.964844 12.132812 L 0.964844 11.804688 L 0.871094 11.804688 L 0.871094 11.476562 L 0.773438 11.476562 L 0.773438 11.148438 L 0.675781 11.148438 L 0.675781 10.820312 L 0.578125 10.820312 L 0.578125 9.96875 L 0.386719 9.96875 L 0.386719 10.164062 L 0.289062 10.164062 L 0.289062 10.492188 L 0.191406 10.492188 L 0.191406 10.820312 L 0.0976562 10.820312 L 0.0976562 11.148438 L 0 11.148438 L 0 12.132812 L 0.0976562 12.132812 L 0.0976562 11.804688 L 0.191406 11.804688 L 0.191406 11.476562 L 0.289062 11.476562 L 0.289062 11.148438 L 0.386719 11.148438 L 0.386719 11.476562 L 0.484375 11.476562 L 0.484375 11.804688 L 0.578125 11.804688 L 0.578125 12.132812 L 0.675781 12.132812 L 0.675781 12.460938 L 0.773438 12.460938 L 0.773438 12.785156 L 0.871094 12.785156 L 0.871094 13.113281 L 0.773438 13.113281 L 0.773438 13.441406 L 0.675781 13.441406 L 0.675781 13.769531 L 0.386719 13.769531 L 0.386719 13.441406 L 0.578125 13.441406 L 0.578125 13.113281 L 0.484375 13.113281 L 0.484375 12.785156 L 0.386719 12.785156 L 0.386719 12.460938 L 0.289062 12.460938 L 0.289062 12.785156 L 0.191406 12.785156 L 0.191406 13.113281 L 0.0976562 13.113281 L 0.0976562 13.441406 L 0 13.441406 Z M 0 12.785156 L 0.0976562 12.785156 L 0.0976562 12.460938 L 0 12.460938 Z M 1.0625 11.804688 L 1.121094 11.804688 L 1.121094 11.476562 L 1.0625 11.476562 Z M 0.871094 11.148438 L 0.964844 11.148438 L 0.964844 10.820312 L 1.0625 10.820312 L 1.0625 10.492188 L 1.121094 10.492188 L 1.121094 9.96875 L 1.0625 9.96875 L 1.0625 10.164062 L 0.964844 10.164062 L 0.964844 10.492188 L 0.871094 10.492188 Z M 0.675781 10.164062 L 0.773438 10.164062 L 0.773438 9.96875 L 0.675781 9.96875 Z M 0.675781 10.164062 "/>
<path style=" stroke:none;fill-rule:evenodd;fill:rgb(78.431373%,19.215686%,24.313725%);fill-opacity:1;" d="M 1.835938 20 L 1.546875 20 L 1.546875 19.671875 L 1.449219 19.671875 L 1.449219 19.34375 L 1.351562 19.34375 L 1.351562 19.015625 L 1.257812 19.015625 L 1.257812 18.6875 L 1.160156 18.6875 L 1.160156 18.359375 L 1.257812 18.359375 L 1.257812 18.03125 L 1.351562 18.03125 L 1.351562 17.703125 L 1.449219 17.703125 L 1.449219 17.378906 L 1.546875 17.378906 L 1.546875 17.050781 L 1.640625 17.050781 L 1.640625 16.722656 L 1.738281 16.722656 L 1.738281 17.050781 L 1.835938 17.050781 L 1.835938 17.378906 L 1.933594 17.378906 L 1.933594 17.703125 L 2.027344 17.703125 L 2.027344 18.03125 L 2.125 18.03125 L 2.125 18.359375 L 2.222656 18.359375 L 2.222656 18.6875 L 2.125 18.6875 L 2.125 19.015625 L 2.027344 19.015625 L 2.027344 19.34375 L 1.933594 19.34375 L 1.933594 19.671875 L 1.835938 19.671875 Z M 1.738281 19.34375 L 1.640625 19.34375 L 1.640625 19.015625 L 1.546875 19.015625 L 1.546875 18.6875 L 1.449219 18.6875 L 1.449219 18.359375 L 1.546875 18.359375 L 1.546875 18.03125 L 1.640625 18.03125 L 1.640625 17.703125 L 1.738281 17.703125 L 1.738281 18.03125 L 1.835938 18.03125 L 1.835938 18.359375 L 1.933594 18.359375 L 1.933594 18.6875 L 1.835938 18.6875 L 1.835938 19.015625 L 1.738281 19.015625 Z M 1.738281 18.6875 L 1.640625 18.6875 L 1.640625 18.359375 L 1.738281 18.359375 Z M 2.222656 19.671875 L 2.125 19.671875 L 2.125 19.34375 L 2.222656 19.34375 Z M 2.222656 17.703125 L 2.125 17.703125 L 2.125 17.378906 L 2.222656 17.378906 Z M 1.160156 20 L 1.101562 20 L 1.101562 19.34375 L 1.160156 19.34375 Z M 1.160156 17.703125 L 1.101562 17.703125 L 1.101562 17.050781 L 1.160156 17.050781 Z M 2.027344 17.050781 L 1.933594 17.050781 L 1.933594 16.722656 L 1.835938 16.722656 L 1.835938 16.394531 L 1.738281 16.394531 L 1.738281 16.066406 L 1.835938 16.066406 L 1.835938 15.738281 L 1.933594 15.738281 L 1.933594 15.410156 L 2.027344 15.410156 L 2.027344 15.738281 L 2.125 15.738281 L 2.125 16.066406 L 2.222656 16.066406 L 2.222656 16.394531 L 2.125 16.394531 L 2.125 16.722656 L 2.027344 16.722656 Z M 2.027344 16.394531 L 1.933594 16.394531 L 1.933594 16.066406 L 2.027344 16.066406 Z M 1.449219 17.050781 L 1.351562 17.050781 L 1.351562 16.722656 L 1.257812 16.722656 L 1.257812 16.394531 L 1.160156 16.394531 L 1.160156 16.066406 L 1.257812 16.066406 L 1.257812 15.738281 L 1.351562 15.738281 L 1.351562 15.410156 L 1.449219 15.410156 L 1.449219 15.738281 L 1.546875 15.738281 L 1.546875 16.066406 L 1.640625 16.066406 L 1.640625 16.394531 L 1.546875 16.394531 L 1.546875 16.722656 L 1.449219 16.722656 Z M 1.449219 16.394531 L 1.351562 16.394531 L 1.351562 16.066406 L 1.449219 16.066406 Z M 2.222656 15.082031 L 2.125 15.082031 L 2.125 14.753906 L 2.222656 14.753906 Z M 1.160156 15.410156 L 1.101562 15.410156 L 1.101562 14.753906 L 1.160156 14.753906 Z M 1.160156 15.410156 "/>
<path style=" stroke:none;fill-rule:evenodd;fill:rgb(78.431373%,19.215686%,24.313725%);fill-opacity:1;" d="M 2.222656 14.097656 L 2.125 14.097656 L 2.125 14.425781 L 2.027344 14.425781 L 2.027344 14.753906 L 1.933594 14.753906 L 1.933594 15.082031 L 1.835938 15.082031 L 1.835938 15.410156 L 1.738281 15.410156 L 1.738281 15.738281 L 1.640625 15.738281 L 1.640625 15.410156 L 1.546875 15.410156 L 1.546875 15.082031 L 1.449219 15.082031 L 1.449219 14.753906 L 1.351562 14.753906 L 1.351562 14.425781 L 1.257812 14.425781 L 1.257812 14.097656 L 1.160156 14.097656 L 1.160156 13.769531 L 1.101562 13.769531 L 1.101562 12.460938 L 1.160156 12.460938 L 1.160156 12.132812 L 1.257812 12.132812 L 1.257812 11.804688 L 1.351562 11.804688 L 1.351562 11.476562 L 1.449219 11.476562 L 1.449219 11.148438 L 1.546875 11.148438 L 1.546875 10.820312 L 1.640625 10.820312 L 1.640625 9.96875 L 1.835938 9.96875 L 1.835938 10.164062 L 1.933594 10.164062 L 1.933594 10.492188 L 2.027344 10.492188 L 2.027344 10.820312 L 2.125 10.820312 L 2.125 11.148438 L 2.222656 11.148438 L 2.222656 12.132812 L 2.125 12.132812 L 2.125 11.804688 L 2.027344 11.804688 L 2.027344 11.476562 L 1.933594 11.476562 L 1.933594 11.148438 L 1.835938 11.148438 L 1.835938 11.476562 L 1.738281 11.476562 L 1.738281 11.804688 L 1.640625 11.804688 L 1.640625 12.132812 L 1.546875 12.132812 L 1.546875 12.460938 L 1.449219 12.460938 L 1.449219 12.785156 L 1.351562 12.785156 L 1.351562 13.113281 L 1.449219 13.113281 L 1.449219 13.441406 L 1.546875 13.441406 L 1.546875 13.769531 L 1.835938 13.769531 L 1.835938 13.441406 L 1.640625 13.441406 L 1.640625 13.113281 L 1.738281 13.113281 L 1.738281 12.785156 L 1.835938 12.785156 L 1.835938 12.460938 L 1.933594 12.460938 L 1.933594 12.785156 L 2.027344 12.785156 L 2.027344 13.113281 L 2.125 13.113281 L 2.125 13.441406 L 2.222656 13.441406 Z M 2.222656 12.785156 L 2.125 12.785156 L 2.125 12.460938 L 2.222656 12.460938 Z M 1.160156 11.804688 L 1.101562 11.804688 L 1.101562 11.476562 L 1.160156 11.476562 Z M 1.351562 11.148438 L 1.257812 11.148438 L 1.257812 10.820312 L 1.160156 10.820312 L 1.160156 10.492188 L 1.101562 10.492188 L 1.101562 9.96875 L 1.160156 9.96875 L 1.160156 10.164062 L 1.257812 10.164062 L 1.257812 10.492188 L 1.351562 10.492188 Z M 1.546875 10.164062 L 1.449219 10.164062 L 1.449219 9.96875 L 1.546875 9.96875 Z M 1.546875 10.164062 "/>
</g>
</svg>
