<?xml version="1.0"?>
<svg xmlns="http://www.w3.org/2000/svg" height="512px" viewBox="0 0 512 512" width="512px"><g><path d="m362.667969 186.667969c0-20.589844-16.746094-37.335938-37.335938-37.335938h-288c-20.585937 0-37.332031 16.746094-37.332031 37.335938v288c0 20.585937 16.746094 37.332031 37.332031 37.332031h288c20.589844 0 37.335938-16.746094 37.335938-37.332031zm0 0" data-original="#000000" class="active-path" data-old_color="#000000" fill="#FFFFFF"/><path d="m490.667969 106.667969c-11.796875 0-21.335938-9.558594-21.335938-21.335938v-21.332031c0-11.753906-9.554687-21.332031-21.332031-21.332031h-21.332031c-11.796875 0-21.335938-9.558594-21.335938-21.335938 0-11.773437 9.539063-21.332031 21.335938-21.332031h21.332031c35.285156 0 64 28.714844 64 64v21.332031c0 11.777344-9.535156 21.335938-21.332031 21.335938zm0 0" data-original="#000000" class="active-path" data-old_color="#000000" fill="#FFFFFF"/><path d="m106.667969 106.667969c-11.796875 0-21.335938-9.558594-21.335938-21.335938v-21.332031c0-35.285156 28.714844-64 64-64h21.335938c11.796875 0 21.332031 9.558594 21.332031 21.332031 0 11.777344-9.535156 21.335938-21.332031 21.335938h-21.335938c-11.773437 0-21.332031 9.578125-21.332031 21.332031v21.332031c0 11.777344-9.535156 21.335938-21.332031 21.335938zm0 0" data-original="#000000" class="active-path" data-old_color="#000000" fill="#FFFFFF"/><path d="m341.332031 42.667969h-85.332031c-11.796875 0-21.332031-9.558594-21.332031-21.335938 0-11.773437 9.535156-21.332031 21.332031-21.332031h85.332031c11.796875 0 21.335938 9.558594 21.335938 21.332031 0 11.777344-9.539063 21.335938-21.335938 21.335938zm0 0" data-original="#000000" class="active-path" data-old_color="#000000" fill="#FFFFFF"/><path d="m448 426.667969h-21.332031c-11.796875 0-21.335938-9.558594-21.335938-21.335938 0-11.773437 9.539063-21.332031 21.335938-21.332031h21.332031c11.777344 0 21.332031-9.578125 21.332031-21.332031v-21.335938c0-11.773437 9.539063-21.332031 21.335938-21.332031s21.332031 9.558594 21.332031 21.332031v21.335938c0 35.285156-28.714844 64-64 64zm0 0" data-original="#000000" class="active-path" data-old_color="#000000" fill="#FFFFFF"/><path d="m490.667969 277.332031c-11.796875 0-21.335938-9.554687-21.335938-21.332031v-85.332031c0-11.777344 9.539063-21.335938 21.335938-21.335938s21.332031 9.558594 21.332031 21.335938v85.332031c0 11.777344-9.535156 21.332031-21.332031 21.332031zm0 0" data-original="#000000" class="active-path" data-old_color="#000000" fill="#FFFFFF"/></g> </svg>
