<?xml version="1.0"?>
<svg xmlns="http://www.w3.org/2000/svg" xmlns:xlink="http://www.w3.org/1999/xlink" xmlns:svgjs="http://svgjs.com/svgjs" version="1.1" width="512" height="512" x="0" y="0" viewBox="0 0 512 512" style="enable-background:new 0 0 512 512" xml:space="preserve" class=""><g>
<g xmlns="http://www.w3.org/2000/svg" id="XMLID_826_">
	<path id="XMLID_827_" d="M495.158,264.094c-10.566-6.903-23.784-7.994-35.353-2.918c-18.295,8.026-38.671,14.726-60.522,20.005   V201.37c0-17.409-19.179-32.492-55.517-43.72c0,0-0.014-42.656-0.041-42.912c-0.854-18.906-32.519-29.201-59.161-34.518   c-3.431-0.685-6.906,1.139-8.334,4.338c-1.75,3.754-0.125,8.216,3.63,9.966c1.05,0.489,2.146,0.713,3.238,0.704   c37.227,7.638,45.667,17.426,45.667,20.289c0,2.45-6.179,10.405-34.393,17.693c-25.21,6.512-58.854,10.098-94.732,10.098   s-69.522-3.586-94.732-10.098c-28.214-7.288-34.393-15.243-34.393-17.693s6.179-10.405,34.393-17.693   c25.21-6.512,58.854-10.098,94.732-10.098c16.288,0,32.219,0.745,47.348,2.214c4.122,0.397,7.789-2.618,8.189-6.74   c0.4-4.123-2.617-7.789-6.74-8.189c-15.608-1.516-32.026-2.284-48.797-2.284c-37.108,0-72.084,3.755-98.484,10.575   c-30.285,7.823-45.641,18.662-45.641,32.216v42.136C19.176,168.88,0,183.953,0,201.37v124.422c0,4.533,1.118,9.011,3.232,12.948   c9.96,18.548,27.637,35.489,52.538,50.351c1.205,0.719,2.529,1.061,3.837,1.061c2.554,0,5.043-1.305,6.447-3.657   c2.123-3.557,0.96-8.161-2.597-10.284c-4.596-2.743-8.922-5.583-12.992-8.496v-64.048c0-4.142-3.357-7.5-7.5-7.5   s-7.5,3.358-7.5,7.5v51.839c-8.21-7.677-14.638-15.705-19.019-23.863C15.501,329.88,15,327.857,15,325.792V201.37   c0-7.265,10.843-18.132,40.517-27.969v15.147c0,13.554,15.355,24.394,45.641,32.216c26.4,6.819,61.376,10.575,98.484,10.575   s72.084-3.755,98.484-10.575c30.285-7.823,45.641-18.662,45.641-32.216v-15.146c29.69,9.846,40.517,20.726,40.517,27.968   c0,12.676-28.353,24.961-52.632,31.629c-3.994,1.097-6.343,5.225-5.246,9.219c0.915,3.33,3.935,5.516,7.229,5.516   c0.657,0,1.325-0.087,1.99-0.27c21.634-5.942,37.955-13.1,48.659-21.229v58.297c-8.256,1.699-16.693,3.202-25.283,4.505V275.5   c0-4.142-3.357-7.5-7.5-7.5s-7.5,3.358-7.5,7.5v15.591c-12.582,1.535-25.444,2.645-38.5,3.321v-9.162c0-4.142-3.357-7.5-7.5-7.5   s-7.5,3.358-7.5,7.5v9.742c-5.02,0.129-10.06,0.203-15.121,0.203c-7.495,0-14.959-0.151-22.379-0.439v-3.506   c0-4.142-3.357-7.5-7.5-7.5s-7.5,3.358-7.5,7.5v2.728c-50.664-3.3-98.525-13.254-137.619-28.851   c-3.591-1.432-3.179-4.479-2.835-5.722c0.354-1.278,1.603-4.182,5.519-3.55c29.286,4.735,62.682,7.238,96.577,7.238   c36.579,0,72.253-2.888,103.165-8.353c4.079-0.721,6.801-4.612,6.08-8.691s-4.612-6.798-8.691-6.08   c-30.064,5.314-64.835,8.124-100.554,8.124c-33.107,0-65.675-2.437-94.183-7.046c-10.372-1.679-19.567,4.228-22.369,14.358   c-0.093,0.337-0.156,0.673-0.233,1.009c-11.194-6.452-25.162-16.302-33.675-28.919c-2.316-3.435-6.979-4.339-10.412-2.022   c-3.434,2.317-4.339,6.979-2.021,10.412c18.362,27.215,56.034,42.37,58.062,43.169c0.004,0.002,0.007,0.004,0.011,0.005   c50.33,20.078,114.453,31.135,180.557,31.135c49.438,0,97.258-6.09,139.262-17.475v113.574   c-20.382,5.744-42.341,10.195-65.371,13.229V359.61c0-4.142-3.357-7.5-7.5-7.5s-7.5,3.358-7.5,7.5v61.671   c-19.097,1.97-38.817,2.995-58.891,2.995c-0.271,0-0.54-0.004-0.811-0.004V362.61c0-4.142-3.357-7.5-7.5-7.5s-7.5,3.358-7.5,7.5   v61.443c-20.374-0.552-40.385-2.166-59.7-4.784v-63.602c0-4.142-3.357-7.5-7.5-7.5s-7.5,3.358-7.5,7.5v61.345   c-21.025-3.487-41.075-8.194-59.701-14.034v-64.311c0-4.142-3.357-7.5-7.5-7.5s-7.5,3.358-7.5,7.5v59.248   c-5.56-2.016-10.977-4.134-16.22-6.365c-3.811-1.62-8.216,0.154-9.838,3.965c-1.622,3.812,0.153,8.216,3.965,9.838   c51.416,21.875,117.936,33.923,187.305,33.923c85.228,0,164.746-17.982,218.167-49.335C504.929,383.259,512,370.943,512,357.799   v-62.575C512,282.621,505.704,270.984,495.158,264.094z M309,201.754v-15.906c0-4.142-3.357-7.5-7.5-7.5s-7.5,3.358-7.5,7.5v20.485   c-10.642,2.728-22.774,4.934-35.93,6.576v-21.599c0-4.142-3.357-7.5-7.5-7.5s-7.5,3.358-7.5,7.5v23.184   c-11.479,1.007-23.538,1.615-35.929,1.789v-25.905c0-4.142-3.357-7.5-7.5-7.5s-7.5,3.358-7.5,7.5v25.905   c-12.392-0.174-24.45-0.782-35.93-1.789v-28.245c0-4.142-3.357-7.5-7.5-7.5s-7.5,3.358-7.5,7.5v26.66   c-13.155-1.642-25.287-3.848-35.929-6.576v-30.606c0-4.142-3.357-7.5-7.5-7.5s-7.5,3.358-7.5,7.5v26.028   c-15.836-5.815-19.767-11.255-19.767-13.206V136.05c7.459,4.43,17.677,8.333,30.641,11.681c26.4,6.819,61.376,10.575,98.484,10.575   s72.084-3.756,98.484-10.575c12.963-3.348,23.182-7.251,30.641-11.681v52.498C328.767,190.499,324.836,195.94,309,201.754z    M497,357.799c0,7.846-4.233,15.206-11.047,19.205c-16.368,9.606-35.36,17.895-56.313,24.737V288.359   c12.732-3.976,24.839-8.466,36.19-13.446c7.018-3.079,14.718-2.445,21.124,1.739c6.384,4.171,10.045,10.94,10.045,18.572V357.799z" fill="#c880ea" data-original="#000000" style="" class=""/>
	<path id="XMLID_831_" d="M463.32,300.439c-11.897,0-20.87,13.822-20.87,32.151c0,18.329,8.973,32.15,20.87,32.15   s20.87-13.822,20.87-32.15C484.19,314.261,475.218,300.439,463.32,300.439z M463.334,349.741c-1.37-0.227-5.884-6.015-5.884-17.151   c0-11.136,4.514-16.925,5.856-17.152c1.37,0.227,5.884,6.016,5.884,17.152C469.19,343.726,464.677,349.515,463.334,349.741z" fill="#c880ea" data-original="#000000" style="" class=""/>
	<path id="XMLID_834_" d="M135.161,100.509c-19.604,2.891-32.661,6.848-32.661,16.766s13.057,13.875,32.661,16.766   c17.282,2.548,40.182,3.952,64.48,3.952s47.198-1.403,64.48-3.952c19.604-2.891,32.661-6.848,32.661-16.766   s-13.057-13.875-32.661-16.766c-17.282-2.548-40.182-3.952-64.48-3.952S152.443,97.961,135.161,100.509z M272.695,117.275   c-13.038,2.832-37.638,5.718-73.054,5.718s-60.016-2.886-73.054-5.718c13.038-2.833,37.638-5.718,73.054-5.718   S259.657,114.443,272.695,117.275z" fill="#c880ea" data-original="#000000" style="" class=""/>
</g>















</g></svg>
