<?xml version="1.0"?>
<svg xmlns="http://www.w3.org/2000/svg" xmlns:xlink="http://www.w3.org/1999/xlink" version="1.1" id="Capa_1" x="0px" y="0px" viewBox="0 0 512 512" style="enable-background:new 0 0 512 512;" xml:space="preserve" width="512px" height="512px"><g><g>
	<g>
		<path d="M467,0c-19.53,0-36.024,12.578-42.237,30c-6.442,0-332.372,0-337.526,0C81.024,12.578,64.53,0,45,0    C20.186,0,0,20.186,0,45c0,24.814,20.186,45,45,45c5.284,0,10.285-1.082,15-2.763V90c0,16.567,13.431,30,30,30    c16.569,0,30-13.433,30-30V60h30v30c0,16.567,13.431,30,30,30c16.569,0,30-13.433,30-30V60h92v30c0,16.567,13.431,30,30,30    c16.569,0,30-13.433,30-30V60h30v30c0,16.567,13.431,30,30,30c16.569,0,30-13.433,30-30v-2.763c4.715,1.681,9.716,2.763,15,2.763    c24.814,0,45-20.186,45-45C512,20.186,491.814,0,467,0z" data-original="#000000" class="active-path" data-old_color="#000000" fill="#FFFFFF"/>
	</g>
</g><g>
	<g>
		<path d="M90,150c-10.977,0-21.14-3.177-30-8.344V482c0,16.567,13.431,30,30,30c16.569,0,30-13.433,30-30V141.656    C111.14,146.823,100.977,150,90,150z" data-original="#000000" class="active-path" data-old_color="#000000" fill="#FFFFFF"/>
	</g>
</g><g>
	<g>
		<path d="M180,150c-10.977,0-21.14-3.177-30-8.344V482c0,16.567,13.431,30,30,30c16.569,0,30-13.433,30-30V141.656    C201.14,146.823,190.977,150,180,150z" data-original="#000000" class="active-path" data-old_color="#000000" fill="#FFFFFF"/>
	</g>
</g><g>
	<g>
		<path d="M332,150c-10.977,0-21.14-3.177-30-8.344V482c0,16.567,13.431,30,30,30c16.569,0,30-13.433,30-30V141.656    C353.14,146.823,342.977,150,332,150z" data-original="#000000" class="active-path" data-old_color="#000000" fill="#FFFFFF"/>
	</g>
</g><g>
	<g>
		<path d="M422,150c-10.977,0-21.14-3.177-30-8.344V482c0,16.567,13.431,30,30,30c16.569,0,30-13.433,30-30V141.656    C443.14,146.823,432.977,150,422,150z" data-original="#000000" class="active-path" data-old_color="#000000" fill="#FFFFFF"/>
	</g>
</g></g> </svg>
