<svg width="19" height="21" viewBox="0 0 19 21" fill="none" xmlns="http://www.w3.org/2000/svg">
<path d="M11.501 0.500122H7.50098C3.64098 0.500122 0.500977 3.64012 0.500977 7.50012V10.5001C0.500977 13.2126 2.06348 15.6701 4.50098 16.8276V20.1701C4.50098 20.4601 4.86348 20.6101 5.06848 20.4051L7.97348 17.5026H11.501C15.361 17.5026 18.501 14.3626 18.501 10.5001V7.50012C18.501 3.64012 15.361 0.500122 11.501 0.500122ZM14.121 13.6204L13.1085 14.6104C12.0435 15.6529 9.26348 14.4629 6.81348 11.9604C4.36348 9.45537 3.28848 6.65037 4.30098 5.60787L5.31348 4.61787C5.68598 4.25287 6.31848 4.26037 6.73598 4.63287L8.19598 6.12537C8.71597 6.65787 8.49598 7.55037 7.80848 7.75537C7.33348 7.90787 7.01098 8.43037 7.16348 8.90537C7.41598 10.0154 8.82348 11.4029 9.87348 11.6779C10.346 11.7879 10.876 11.5304 11.041 11.0579C11.2585 10.3754 12.156 10.1729 12.6785 10.7079L14.136 12.1979C14.501 12.5701 14.496 13.2029 14.121 13.6204ZM10.411 5.25012C10.311 5.25012 10.211 5.25512 10.1135 5.26762C9.93098 5.28762 9.76597 5.15512 9.74598 4.97262C9.72598 4.79012 9.85848 4.62512 10.041 4.60512C10.1635 4.59012 10.2885 4.58512 10.411 4.58512C12.2485 4.58512 13.7435 6.08012 13.7435 7.91762C13.7435 8.04012 13.7385 8.16512 13.7235 8.28762C13.7035 8.46762 13.536 8.60262 13.356 8.58262C13.176 8.56262 13.041 8.39512 13.061 8.21512C13.071 8.11762 13.0785 8.01762 13.0785 7.91762C13.0785 6.44762 11.881 5.25012 10.411 5.25012ZM12.411 7.91762C12.411 8.10012 12.2585 8.25012 12.076 8.25012C11.896 8.25012 11.7435 8.10012 11.7435 7.91762C11.7435 7.18262 11.146 6.58512 10.411 6.58512C10.226 6.58512 10.076 6.43512 10.076 6.25012C10.076 6.06762 10.226 5.91762 10.411 5.91762C11.5135 5.91762 12.411 6.81512 12.411 7.91762ZM14.9535 8.99512C14.911 9.17512 14.7185 9.28762 14.541 9.24012C14.3685 9.19262 14.2635 9.01262 14.3035 8.84012C14.376 8.54012 14.411 8.23012 14.411 7.91762C14.411 5.71262 12.616 3.91762 10.411 3.91762C10.3085 3.91762 10.2035 3.92012 10.101 3.93012C9.91848 3.94262 9.75848 3.80512 9.74348 3.62262C9.73098 3.43762 9.86848 3.27762 10.051 3.26512C10.171 3.25512 10.291 3.25012 10.411 3.25012C12.9835 3.25012 15.0785 5.34512 15.0785 7.91762C15.0785 8.28012 15.036 8.64262 14.9535 8.99512Z" fill="#665CAC"/>
</svg>
