<?xml version="1.0" encoding="utf-8"?>
<!-- Generator: Adobe Illustrator 21.1.0, SVG Export Plug-In . SVG Version: 6.00 Build 0)  -->
<svg version="1.1" id="Layer_1" xmlns="http://www.w3.org/2000/svg" xmlns:xlink="http://www.w3.org/1999/xlink" x="0px" y="0px"
	 viewBox="0 0 367.9 409" style="enable-background:new 0 0 367.9 409;" xml:space="preserve">
<style type="text/css">
	.st0{fill:#8673FC;}
	.st1{fill:#FFFFFF;}
</style>
<g>
	<path class="st0" d="M136.4,0.3c30.1,0,60.2,0,90.3,0c1.5,0.3,3.1,0.9,4.6,1c20,0.5,39,5.1,56.7,14.4
		c50.8,26.6,77.6,68.9,79.7,126.2c0.8,21.7,0.6,43.4-0.1,65.1c-0.3,10.5-1.5,21.3-4,31.5c-11.1,44.2-37.7,76.1-78.8,95.9
		c-18.6,9-38.5,12.9-59,13.2c-22.8,0.3-45.6,0.1-68.3,0c-3.3,0-5.7,1-8,3.3c-17.8,18.2-35.7,36.2-53.6,54.3
		c-2.6,2.6-5.1,5.3-9.3,3.5c-4.1-1.7-4.3-5.2-4.3-9c0.1-20.5,0-41,0.1-61.5c0-2.9-0.9-4.5-3.5-5.8c-13.5-6.7-25.5-15.4-36.1-26
		C16.5,279.9,2,248.1,0.8,210.8c-0.7-22.1-0.3-44.2-0.4-66.3c0-15.4,2.1-30.5,7-45.1c10.1-30.3,28.2-54.7,54.3-73
		c17.2-12.1,36.2-20.1,57-23.5C124.6,1.9,130.5,1.1,136.4,0.3z M239.6,294c23.1,0.7,39.4-12.3,45.8-29.4c1.4-3.7,2.6-8.1,2.1-11.9
		c-1.3-10.1-3.5-20.1-5.4-30.2c-0.8-4.1-3.1-6.7-7.2-7.5c-15-3-30-5.8-44.9-9c-4.5-1-7.7,0.2-10.7,3.4c-4.8,5-9.9,9.7-14.6,14.8
		c-2.1,2.2-3.7,2.4-6.5,1.1c-28.5-12.9-48.5-34-61.6-62.1c-1.1-2.4-0.8-3.8,1-5.5c5.4-5.3,10.7-10.7,16.1-16.1
		c2.3-2.3,3.2-4.9,2.5-8.3c-3.2-15.3-6.1-30.7-9.1-46c-0.8-4.3-3.5-6.6-7.8-7.4c-6.8-1.2-13.5-2.6-20.3-3.7
		c-5-0.8-10.1-2.1-14.9-1.5c-7.3,0.9-13.8,4.8-19.5,9.5c-15,12.5-18.3,29.3-15.9,47.3c3.2,24.5,11,47.8,22.3,69.8
		c9.7,18.9,21.8,36,38.4,49.5c19.5,15.8,41.5,26.7,65.3,34.3C209.2,289.7,224,293.7,239.6,294z M195.6,75.8c0-0.1,0-0.1,0-0.2
		c3,0.3,6.1,0.5,9.1,0.8c29.9,2.9,51.8,18,65.7,44.4c9.1,17.2,10.6,35.7,6.8,54.6c-1,4.8,1.4,8.4,5.7,9.3c3.9,0.8,7.6-1.9,8.6-6.4
		c2.8-13.3,3.3-26.6,0.5-39.9c-5.3-25-18.4-45.2-39.3-59.9c-18.6-13.1-39.5-18.6-62.1-17c-3.8,0.3-6.5,3.1-6.7,6.7
		c-0.2,4,2,6.9,6.1,7.5C191.9,76,193.8,75.8,195.6,75.8z M198.4,88.8c-2.4,0-4.8-0.2-7.2,0c-4.3,0.4-7.1,3.3-7.2,7.1
		c-0.1,4.1,2.7,7.1,7.1,7.6c1,0.1,2.1,0.1,3.2,0c22-1.6,42.3,10.2,52.1,29.9c4.8,9.7,5.9,20,5.6,30.6c-0.1,4,2.8,7,6.5,7.3
		c3.8,0.3,7.5-2.5,7.6-6.5c0.3-5.8,0.7-11.7-0.2-17.4C260.7,111.8,230,88.1,198.4,88.8z M239.5,156.1c-0.1-1.2-0.3-2.4-0.4-3.6
		c-1.4-19.9-21.1-37.6-40.9-36.7c-4.2,0.2-7.2,2.9-7.5,6.9c-0.3,3.3,2.3,6.6,6,7.4c2.6,0.6,5.3,0.7,7.8,1.3
		c12,3.2,18.8,11.9,20.3,25.6c0.5,4.7,3.6,7.7,7.8,7.4C236.6,164.1,239.5,160.7,239.5,156.1z"/>
	<path class="st1" d="M239.6,294c-15.5-0.4-30.4-4.3-45.1-9c-23.8-7.6-45.8-18.5-65.3-34.3c-16.6-13.5-28.7-30.6-38.4-49.5
		c-11.3-22-19.1-45.3-22.3-69.8c-2.4-18,0.9-34.8,15.9-47.3c5.7-4.7,12.1-8.6,19.5-9.5c4.8-0.6,10,0.7,14.9,1.5
		c6.8,1.1,13.6,2.6,20.3,3.7c4.3,0.7,7,3.1,7.8,7.4c3,15.3,6,30.7,9.1,46c0.7,3.4-0.2,6-2.5,8.3c-5.3,5.4-10.7,10.8-16.1,16.1
		c-1.8,1.7-2.1,3.1-1,5.5c13.2,28.1,33.1,49.2,61.6,62.1c2.8,1.3,4.4,1.1,6.5-1.1c4.7-5.1,9.8-9.8,14.6-14.8c3-3.1,6.2-4.3,10.7-3.4
		c14.9,3.2,29.9,6,44.9,9c4.1,0.8,6.5,3.4,7.2,7.5c1.8,10,4.1,20,5.4,30.2c0.5,3.8-0.7,8.2-2.1,11.9
		C278.9,281.7,262.7,294.8,239.6,294z"/>
	<path class="st1" d="M195.6,75.8c-1.8,0-3.7,0.2-5.5,0c-4.1-0.6-6.3-3.5-6.1-7.5c0.2-3.6,2.9-6.4,6.7-6.7
		c22.7-1.6,43.5,3.9,62.1,17c20.9,14.7,34,34.9,39.3,59.9c2.8,13.3,2.3,26.7-0.5,39.9c-1,4.5-4.7,7.3-8.6,6.4
		c-4.3-0.9-6.7-4.6-5.7-9.3c3.8-19,2.3-37.4-6.8-54.6c-13.9-26.4-35.8-41.4-65.7-44.4c-3-0.3-6.1-0.5-9.1-0.8
		C195.7,75.7,195.7,75.7,195.6,75.8z"/>
	<path class="st1" d="M198.4,88.8c31.6-0.7,62.3,23.1,67.6,58.5c0.8,5.7,0.4,11.6,0.2,17.4c-0.2,4-3.8,6.8-7.6,6.5
		c-3.7-0.3-6.6-3.3-6.5-7.3c0.4-10.6-0.8-20.9-5.6-30.6c-9.8-19.7-30.1-31.4-52.1-29.9c-1.1,0.1-2.1,0.1-3.2,0
		c-4.4-0.5-7.2-3.5-7.1-7.6c0.1-3.8,2.9-6.8,7.2-7.1C193.6,88.6,196,88.8,198.4,88.8z"/>
	<path class="st1" d="M239.5,156.1c0,4.6-2.9,8-6.9,8.3c-4.1,0.3-7.2-2.7-7.8-7.4c-1.5-13.7-8.3-22.4-20.3-25.6
		c-2.5-0.7-5.2-0.8-7.8-1.3c-3.7-0.8-6.3-4-6-7.4c0.3-3.9,3.3-6.7,7.5-6.9c19.7-0.9,39.5,16.8,40.9,36.7
		C239.1,153.7,239.3,154.9,239.5,156.1z"/>
</g>
</svg>
